<svg
  xmlns="http://www.w3.org/2000/svg"
  viewBox="0 0 24 24"
  fill="none"
  stroke="currentColor"
  stroke-linecap="round"
  stroke-linejoin="round"
>
  <path d="M9.5 5C5.9 5 3 7.4 3 10.4c0 1.7.9 3.2 2.3 4.2L4.6 17l2.6-1.3c.7.2 1.5.3 2.3.3 3.6 0 6.5-2.4 6.5-5.6S13.1 5 9.5 5Z" />
  <path d="M14.5 10c3.6 0 6.5 2.2 6.5 5 0 1.5-.8 2.9-2.1 3.8l.5 2.2-2.4-1.2c-.8.2-1.6.3-2.5.3-2.9 0-5.3-1.4-6.2-3.5" />
  <path d="M7.2 9.5h.01" />
  <path d="M11.8 9.5h.01" />
  <path d="M12.7 14.8h.01" />
  <path d="M17.3 14.8h.01" />
</svg>
